# xmcd
#
# Track frame offsets:
#	150
#	10857
#	20478
#	30187
#	41031
#	52444
#	62291
#	73196
#	82983
#	93196
#	103098
#	113570
#	122883
#	133160
#	144100
#	153632
#	162214
#	173113
#
# Disc length: 2453 seconds
#
# Revision: 0
# Processed by: cddbd v1.5.2PL0 Copyright (c) Steve Scherf et al.
# Submitted via: EasyCDDAExtractor 16.0.6.1
#
DISCID=e9099312
DTITLE=Little Richard - The Collection
DYEAR=1900
DGENRE=
TTITLE0=Rip it up
TTITLE1=Ready Teddy
TTITLE2=Long tall Sally
TTITLE3=Tutti Frutti
TTITLE4=The girl can't help it
TTITLE5=She's got it
TTITLE6=Lucille
TTITLE7=Good golly miss Molly
TTITLE8=Keep a knockin'
TTITLE9=Baby face
TTITLE10=Send me some lovin'
TTITLE11=Jenny, Jenny
TTITLE12=Miss Ann
TTITLE13=Can't beleive you wanna leave
TTITLE14=Hey-hey-hey
TTITLE15=Ooh! My soul!
TTITLE16=True fine Mamma
TTITLE17=Boo hoo hoo hoo
EXTD=
EXTT0=
EXTT1=
EXTT2=
EXTT3=
EXTT4=
EXTT5=
EXTT6=
EXTT7=
EXTT8=
EXTT9=
EXTT10=
EXTT11=
EXTT12=
EXTT13=
EXTT14=
EXTT15=
EXTT16=
EXTT17=
PLAYORDER=
